<mxfile host="app.diagrams.net" agent="Mozilla/5.0 (Windows NT 10.0; Win64; x64) AppleWebKit/537.36 (KHTML, like Gecko) Chrome/129.0.0.0 Safari/537.36" version="24.8.0">
  <diagram name="Página-1" id="P1r1YXfC2UxBlg7_PyE_">
    <mxGraphModel dx="1674" dy="772" grid="1" gridSize="10" guides="1" tooltips="1" connect="1" arrows="1" fold="1" page="1" pageScale="1" pageWidth="827" pageHeight="1169" math="0" shadow="0">
      <root>
        <mxCell id="0" />
        <mxCell id="1" parent="0" />
        <mxCell id="LSO0xzsxpugW6B0wgT0z-3" value="" style="edgeStyle=orthogonalEdgeStyle;rounded=0;orthogonalLoop=1;jettySize=auto;html=1;" edge="1" parent="1" source="LSO0xzsxpugW6B0wgT0z-1" target="LSO0xzsxpugW6B0wgT0z-2">
          <mxGeometry relative="1" as="geometry" />
        </mxCell>
        <mxCell id="LSO0xzsxpugW6B0wgT0z-1" value="Início" style="ellipse;whiteSpace=wrap;html=1;" vertex="1" parent="1">
          <mxGeometry x="380" y="60" width="120" height="80" as="geometry" />
        </mxCell>
        <mxCell id="LSO0xzsxpugW6B0wgT0z-5" value="" style="edgeStyle=orthogonalEdgeStyle;rounded=0;orthogonalLoop=1;jettySize=auto;html=1;" edge="1" parent="1" source="LSO0xzsxpugW6B0wgT0z-2" target="LSO0xzsxpugW6B0wgT0z-9">
          <mxGeometry relative="1" as="geometry">
            <mxPoint x="440" y="360" as="targetPoint" />
          </mxGeometry>
        </mxCell>
        <mxCell id="LSO0xzsxpugW6B0wgT0z-2" value="Recebe Pedidos dos Co-Produtores" style="whiteSpace=wrap;html=1;" vertex="1" parent="1">
          <mxGeometry x="380" y="230" width="120" height="60" as="geometry" />
        </mxCell>
        <mxCell id="LSO0xzsxpugW6B0wgT0z-12" value="" style="edgeStyle=orthogonalEdgeStyle;rounded=0;orthogonalLoop=1;jettySize=auto;html=1;" edge="1" parent="1" source="LSO0xzsxpugW6B0wgT0z-9" target="LSO0xzsxpugW6B0wgT0z-11">
          <mxGeometry relative="1" as="geometry" />
        </mxCell>
        <mxCell id="LSO0xzsxpugW6B0wgT0z-9" value="Planear Produção para o Timestre" style="whiteSpace=wrap;html=1;" vertex="1" parent="1">
          <mxGeometry x="380" y="370" width="120" height="60" as="geometry" />
        </mxCell>
        <mxCell id="LSO0xzsxpugW6B0wgT0z-14" value="" style="edgeStyle=orthogonalEdgeStyle;rounded=0;orthogonalLoop=1;jettySize=auto;html=1;" edge="1" parent="1" source="LSO0xzsxpugW6B0wgT0z-11" target="LSO0xzsxpugW6B0wgT0z-13">
          <mxGeometry relative="1" as="geometry" />
        </mxCell>
        <mxCell id="LSO0xzsxpugW6B0wgT0z-11" value="Confirmar Produção" style="whiteSpace=wrap;html=1;" vertex="1" parent="1">
          <mxGeometry x="380" y="510" width="120" height="60" as="geometry" />
        </mxCell>
        <mxCell id="LSO0xzsxpugW6B0wgT0z-16" value="" style="edgeStyle=orthogonalEdgeStyle;rounded=0;orthogonalLoop=1;jettySize=auto;html=1;" edge="1" parent="1" source="LSO0xzsxpugW6B0wgT0z-13" target="LSO0xzsxpugW6B0wgT0z-15">
          <mxGeometry relative="1" as="geometry" />
        </mxCell>
        <mxCell id="LSO0xzsxpugW6B0wgT0z-18" value="" style="edgeStyle=orthogonalEdgeStyle;rounded=0;orthogonalLoop=1;jettySize=auto;html=1;" edge="1" parent="1" source="LSO0xzsxpugW6B0wgT0z-13" target="LSO0xzsxpugW6B0wgT0z-17">
          <mxGeometry relative="1" as="geometry" />
        </mxCell>
        <mxCell id="LSO0xzsxpugW6B0wgT0z-20" value="" style="edgeStyle=orthogonalEdgeStyle;rounded=0;orthogonalLoop=1;jettySize=auto;html=1;" edge="1" parent="1" source="LSO0xzsxpugW6B0wgT0z-13" target="LSO0xzsxpugW6B0wgT0z-19">
          <mxGeometry relative="1" as="geometry" />
        </mxCell>
        <mxCell id="LSO0xzsxpugW6B0wgT0z-13" value="Definir Frequência de Entrega" style="rhombus;whiteSpace=wrap;html=1;" vertex="1" parent="1">
          <mxGeometry x="395" y="640" width="90" height="80" as="geometry" />
        </mxCell>
        <mxCell id="LSO0xzsxpugW6B0wgT0z-24" style="edgeStyle=orthogonalEdgeStyle;rounded=0;orthogonalLoop=1;jettySize=auto;html=1;entryX=0;entryY=0.75;entryDx=0;entryDy=0;" edge="1" parent="1" source="LSO0xzsxpugW6B0wgT0z-15" target="LSO0xzsxpugW6B0wgT0z-21">
          <mxGeometry relative="1" as="geometry">
            <Array as="points">
              <mxPoint x="250" y="945" />
            </Array>
          </mxGeometry>
        </mxCell>
        <mxCell id="LSO0xzsxpugW6B0wgT0z-15" value="Semanal" style="whiteSpace=wrap;html=1;" vertex="1" parent="1">
          <mxGeometry x="190" y="760" width="120" height="60" as="geometry" />
        </mxCell>
        <mxCell id="LSO0xzsxpugW6B0wgT0z-22" value="" style="edgeStyle=orthogonalEdgeStyle;rounded=0;orthogonalLoop=1;jettySize=auto;html=1;" edge="1" parent="1" source="LSO0xzsxpugW6B0wgT0z-17" target="LSO0xzsxpugW6B0wgT0z-21">
          <mxGeometry relative="1" as="geometry" />
        </mxCell>
        <mxCell id="LSO0xzsxpugW6B0wgT0z-17" value="Quinzenal" style="whiteSpace=wrap;html=1;" vertex="1" parent="1">
          <mxGeometry x="380" y="760" width="120" height="60" as="geometry" />
        </mxCell>
        <mxCell id="LSO0xzsxpugW6B0wgT0z-19" value="Final do Trimestre" style="whiteSpace=wrap;html=1;" vertex="1" parent="1">
          <mxGeometry x="600" y="760" width="120" height="60" as="geometry" />
        </mxCell>
        <mxCell id="LSO0xzsxpugW6B0wgT0z-26" value="" style="edgeStyle=orthogonalEdgeStyle;rounded=0;orthogonalLoop=1;jettySize=auto;html=1;" edge="1" parent="1" source="LSO0xzsxpugW6B0wgT0z-21" target="LSO0xzsxpugW6B0wgT0z-25">
          <mxGeometry relative="1" as="geometry" />
        </mxCell>
        <mxCell id="LSO0xzsxpugW6B0wgT0z-21" value="Preparar Pedidos para Entrega" style="whiteSpace=wrap;html=1;" vertex="1" parent="1">
          <mxGeometry x="380" y="900" width="120" height="60" as="geometry" />
        </mxCell>
        <mxCell id="LSO0xzsxpugW6B0wgT0z-23" style="edgeStyle=orthogonalEdgeStyle;rounded=0;orthogonalLoop=1;jettySize=auto;html=1;entryX=0.975;entryY=0.633;entryDx=0;entryDy=0;entryPerimeter=0;" edge="1" parent="1" source="LSO0xzsxpugW6B0wgT0z-19" target="LSO0xzsxpugW6B0wgT0z-21">
          <mxGeometry relative="1" as="geometry">
            <Array as="points">
              <mxPoint x="660" y="938" />
            </Array>
          </mxGeometry>
        </mxCell>
        <mxCell id="LSO0xzsxpugW6B0wgT0z-28" style="edgeStyle=orthogonalEdgeStyle;rounded=0;orthogonalLoop=1;jettySize=auto;html=1;" edge="1" parent="1" source="LSO0xzsxpugW6B0wgT0z-25" target="LSO0xzsxpugW6B0wgT0z-27">
          <mxGeometry relative="1" as="geometry" />
        </mxCell>
        <mxCell id="LSO0xzsxpugW6B0wgT0z-25" value="Gerar Relatório de Vendas" style="whiteSpace=wrap;html=1;" vertex="1" parent="1">
          <mxGeometry x="380" y="1040" width="120" height="60" as="geometry" />
        </mxCell>
        <mxCell id="LSO0xzsxpugW6B0wgT0z-27" value="Fim" style="ellipse;whiteSpace=wrap;html=1;" vertex="1" parent="1">
          <mxGeometry x="380" y="1150" width="120" height="80" as="geometry" />
        </mxCell>
      </root>
    </mxGraphModel>
  </diagram>
</mxfile>
